<svg width="24" height="24" viewBox="0 0 24 24" fill="none" xmlns="http://www.w3.org/2000/svg">
<path d="M10.8952 0.450922C11.509 -0.150308 12.491 -0.150307 13.1048 0.450923L15.2684 2.57009C15.5595 2.85516 15.9495 3.0167 16.3568 3.02093L19.3852 3.05236C20.2444 3.06127 20.9387 3.7556 20.9476 4.61478L20.9791 7.64317C20.9833 8.05055 21.1448 8.44053 21.4299 8.73158L23.5491 10.8952C24.1503 11.509 24.1503 12.491 23.5491 13.1048L21.4299 15.2684C21.1448 15.5595 20.9833 15.9495 20.9791 16.3568L20.9476 19.3852C20.9387 20.2444 20.2444 20.9387 19.3852 20.9476L16.3568 20.9791C15.9495 20.9833 15.5595 21.1448 15.2684 21.4299L13.1048 23.5491C12.491 24.1503 11.509 24.1503 10.8952 23.5491L8.73158 21.4299C8.44053 21.1448 8.05055 20.9833 7.64317 20.9791L4.61478 20.9476C3.7556 20.9387 3.06127 20.2444 3.05236 19.3852L3.02093 16.3568C3.0167 15.9495 2.85516 15.5595 2.57009 15.2684L0.450922 13.1048C-0.150308 12.491 -0.150307 11.509 0.450923 10.8952L2.57009 8.73158C2.85516 8.44053 3.0167 8.05055 3.02093 7.64317L3.05236 4.61478C3.06127 3.7556 3.7556 3.06127 4.61478 3.05236L7.64317 3.02093C8.05055 3.0167 8.44053 2.85516 8.73158 2.57009L10.8952 0.450922Z" fill="#00DEA8"/>
<path d="M10.5004 16.5004C10.1164 16.5004 9.73238 16.3534 9.43988 16.0609L6.43988 13.0609C5.85337 12.4744 5.85337 11.5264 6.43988 10.9399C7.02638 10.3534 7.97437 10.3534 8.56087 10.9399L10.5004 12.8794L15.4399 7.93988C16.0264 7.35337 16.9744 7.35337 17.5609 7.93988C18.1474 8.52638 18.1474 9.47437 17.5609 10.0609L11.5609 16.0609C11.2684 16.3534 10.8844 16.5004 10.5004 16.5004Z" fill="white"/>
</svg>
