<svg width="32" height="32" viewBox="0 0 32 32" fill="none" xmlns="http://www.w3.org/2000/svg">
<path d="M22.2376 10.0775C21.0709 9.56997 19.8391 9.20813 18.574 9.00097C18.5502 8.9966 18.5263 9.00722 18.5146 9.02721C18.3571 9.2937 18.1815 9.642 18.0587 9.91557C16.6949 9.71924 15.3076 9.71924 13.9436 9.91557C13.8067 9.61161 13.6522 9.31514 13.4808 9.02721C13.4688 9.00764 13.4452 8.99723 13.4215 9.00097C12.1564 9.20709 10.9242 9.56955 9.7579 10.0775C9.74801 10.0815 9.73966 10.0882 9.73395 10.0967C7.40008 13.4005 6.76025 16.6225 7.07467 19.804C7.07621 19.8198 7.08478 19.8346 7.09796 19.8443C8.45672 20.7983 9.97652 21.5263 11.5926 21.9977C11.6159 22.0044 11.6411 21.9962 11.6556 21.9777C12.0021 21.5301 12.3111 21.0575 12.5758 20.5607C12.5833 20.547 12.5842 20.5308 12.578 20.5164C12.5721 20.502 12.5598 20.4908 12.5444 20.4856C12.0595 20.3097 11.5901 20.0979 11.1406 19.8518C11.1239 19.8425 11.1134 19.826 11.112 19.8077C11.1107 19.7894 11.1193 19.7719 11.1344 19.7609C11.2289 19.694 11.3234 19.6245 11.4133 19.5535C11.4298 19.5412 11.4519 19.5383 11.4711 19.5464C14.4171 20.8206 17.6059 20.8206 20.5174 19.5464C20.5367 19.5379 20.5594 19.5408 20.5758 19.5535C20.6659 19.623 20.7604 19.6942 20.8555 19.7609C20.8707 19.7717 20.879 19.789 20.8782 19.8071C20.8775 19.8254 20.8674 19.8421 20.8511 19.8518C20.4018 20.0998 19.9325 20.3115 19.4465 20.4843C19.4227 20.4925 19.4074 20.5145 19.4089 20.5385C19.4096 20.547 19.412 20.5541 19.4155 20.5612C19.6855 21.0571 19.9945 21.5291 20.3341 21.9775C20.3486 21.996 20.3739 22.0039 20.3972 21.9975C22.0161 21.5276 23.5383 20.7993 24.8986 19.8441C24.912 19.8352 24.9206 19.8212 24.9226 19.8058C25.2976 16.1268 24.2942 12.9311 22.2609 10.0986C22.2563 10.089 22.2479 10.0813 22.2376 10.0771V10.0778V10.0775ZM13.015 17.8661C12.1287 17.8661 11.3975 17.0949 11.3975 16.147C11.3975 15.1991 12.1144 14.428 13.015 14.428C13.9157 14.428 14.6469 15.2068 14.6326 16.1477C14.6326 17.0949 13.9157 17.8661 13.015 17.8661ZM18.996 17.8661C18.1088 17.8661 17.3782 17.0949 17.3782 16.147C17.3782 15.1991 18.0945 14.428 18.996 14.428C19.8976 14.428 20.6279 15.2068 20.6136 16.1477C20.6136 17.0949 19.9041 17.8661 18.996 17.8661Z" fill="black"/>
<circle cx="16" cy="16" r="15.5" stroke="black"/>
</svg>
