<svg width="32" height="32" viewBox="0 0 32 32" fill="none" xmlns="http://www.w3.org/2000/svg">
<g clip-path="url(#clip0_1089_748)">
<path d="M16 8C11.5887 8 8 11.5887 8 16C8 20.4113 11.5887 24 16 24C20.4113 24 24 20.4113 24 16C24 11.5887 20.4113 8 16 8ZM22.6327 15.3333H20.3153C20.2233 13.1933 19.6947 11.32 18.888 10.0007C20.93 10.988 22.398 12.9787 22.6327 15.3333ZM15.3333 9.53333V15.3333H13.0167C13.156 12.354 14.21 10.1733 15.3333 9.53333ZM15.3333 16.6667V22.4667C14.21 21.8267 13.156 19.646 13.0167 16.6667H15.3333ZM16.6667 22.4667V16.6667H18.9833C18.844 19.646 17.79 21.8267 16.6667 22.4667ZM16.6667 15.3333V9.53333C17.79 10.1733 18.844 12.354 18.9833 15.3333H16.6667ZM13.1113 10.0007C12.3053 11.32 11.776 13.1933 11.684 15.3333H9.36733C9.602 12.9787 11.07 10.988 13.1113 10.0007ZM9.36733 16.6667H11.6847C11.7767 18.8067 12.3053 20.68 13.112 21.9993C11.07 21.012 9.602 19.0213 9.36733 16.6667ZM18.8887 21.9993C19.6947 20.68 20.224 18.8067 20.316 16.6667H22.6333C22.398 19.0213 20.93 21.012 18.8887 21.9993Z" fill="white"/>
</g>
<circle cx="16" cy="16" r="15.5" stroke="white"/>
<defs>
<clipPath id="clip0_1089_748">
<rect width="16" height="16" fill="white" transform="translate(8 8)"/>
</clipPath>
</defs>
</svg>
